<svg xmlns="http://www.w3.org/2000/svg" version="1.1" xmlns:xlink="http://www.w3.org/1999/xlink" xmlns:svgjs="http://svgjs.dev/svgjs" width="1500" height="1500" viewBox="0 0 1500 1500"><rect width="1500" height="1500" fill="#ffffff"></rect><g transform="matrix(0.6666666666666666,0,0,0.6666666666666666,249.39393939393938,622.2777837165168)"><svg viewBox="0 0 396 101" data-background-color="#ffffff" preserveAspectRatio="xMidYMid meet" height="382" width="1500" xmlns="http://www.w3.org/2000/svg" xmlns:xlink="http://www.w3.org/1999/xlink"><g id="tight-bounds" transform="matrix(1,0,0,1,0.2400000000000091,0.1542297564076307)"><svg viewBox="0 0 395.52 100.69154048718475" height="100.69154048718475" width="395.52"><g><svg viewBox="0 0 575.8982233094293 146.6122554329975" height="100.69154048718475" width="395.52"><g transform="matrix(1,0,0,1,180.37822330942933,24.1808922384553)"><svg viewBox="0 0 395.52 98.2504709560869" height="98.2504709560869" width="395.52"><g id="textblocktransform"><svg viewBox="0 0 395.52 98.2504709560869" height="98.2504709560869" width="395.52" id="textblock"><g><rect width="106.79039999999999" height="6.449299864398481" y="90.09959614923926" fill="#261f20" data-fill-palette-color="tertiary"></rect><rect width="106.79039999999999" height="6.449299864398481" y="90.09959614923926" x="288.7296" fill="#261f20" data-fill-palette-color="tertiary"></rect></g><g><svg viewBox="0 0 395.52 71.51503726857418" height="71.51503726857418" width="395.52"><g transform="matrix(1,0,0,1,0,0)"><svg width="395.52" viewBox="1.78 -36.23 203.06 36.72" height="71.51503726857418" data-palette-color="#000000"><path d="M28.2-3.81L28.2 0 1.78 0 1.78-3.49 21.75-29.13 3.56-29.13 3.56-32.93 27.05-32.93 27.05-29.54 7.08-3.81 28.2-3.81ZM56.78-13.23L56.78-13.23Q56.78-6.57 53.72-3.04 50.66 0.49 44.87 0.49L44.87 0.49Q39.21 0.49 36.19-3.08 33.18-6.64 33.18-13.23L33.18-13.23Q33.18-20.04 36.26-23.47 39.35-26.9 45.02-26.9L45.02-26.9Q50.97-26.9 53.88-23.51 56.78-20.12 56.78-13.23ZM52.17-13.23L52.17-13.23Q52.17-18.48 50.5-21.07 48.83-23.66 45.09-23.66L45.09-23.66Q41.31-23.66 39.55-21.02 37.79-18.38 37.79-13.23L37.79-13.23Q37.79-8.11 39.55-5.43 41.31-2.76 44.82-2.76L44.82-2.76Q48.7-2.76 50.44-5.37 52.17-7.98 52.17-13.23ZM87.47 0L82.32 0 73.38-12.18 70.16-9.79 70.16 0 65.77 0 65.77-36.23 70.16-36.23 70.16-13.6 81.76-26.42 86.91-26.42 76.19-15.06 87.47 0ZM97.67-16.63L97.67-16.63Q97.67-9.96 99.76-6.63 101.85-3.3 106.14-3.3L106.14-3.3Q108.61-3.3 110.61-4.97 112.61-6.64 114.01-10.18L114.01-10.18 117.89-8.59Q114.25 0.49 106.1 0.49L106.1 0.49Q99.68 0.49 96.22-3.93 92.77-8.35 92.77-16.63L92.77-16.63Q92.77-33.45 105.85-33.45L105.85-33.45Q114.13-33.45 117.23-25.27L117.23-25.27 113.13-23.68Q112.22-26.44 110.31-28.04 108.39-29.64 105.88-29.64L105.88-29.64Q101.7-29.64 99.69-26.49 97.67-23.34 97.67-16.63ZM124.53 0L124.53-36.23 128.95-36.23 128.95-26.71Q128.95-25.27 128.73-21.9L128.73-21.9 128.8-21.9Q131.36-26.9 137.07-26.9L137.07-26.9Q145.62-26.9 145.62-17.6L145.62-17.6 145.62 0 141.2 0 141.2-16.97Q141.2-20.29 139.92-21.9 138.64-23.51 135.83-23.51L135.83-23.51Q132.8-23.51 130.86-21.3 128.92-19.09 128.92-15.31L128.92-15.31 128.92 0 124.53 0ZM176.89-2.71L176.89-2.71Q177.53-2.71 178.33-2.88L178.33-2.88 178.33-0.15Q176.67 0.24 174.94 0.24L174.94 0.24Q172.5 0.24 171.39-1.04 170.28-2.32 170.13-5.05L170.13-5.05 169.98-5.05Q168.4-2.1 166.24-0.81 164.07 0.49 160.9 0.49L160.9 0.49Q157.04 0.49 155.09-1.61 153.14-3.71 153.14-7.37L153.14-7.37Q153.14-15.89 164.22-16.02L164.22-16.02 169.98-16.11 169.98-17.55Q169.98-20.75 168.69-22.16 167.39-23.56 164.56-23.56L164.56-23.56Q161.68-23.56 160.41-22.53 159.14-21.51 158.9-19.36L158.9-19.36 154.31-19.78Q155.43-26.9 164.64-26.9L164.64-26.9Q169.52-26.9 171.97-24.62 174.43-22.34 174.43-18.02L174.43-18.02 174.43-6.64Q174.43-4.69 174.94-3.7 175.45-2.71 176.89-2.71ZM162.02-2.86L162.02-2.86Q164.37-2.86 166.17-3.98 167.98-5.1 168.98-6.98 169.98-8.86 169.98-10.86L169.98-10.86 169.98-13.04 165.34-12.94Q162.46-12.89 160.95-12.3 159.44-11.72 158.59-10.51 157.75-9.3 157.75-7.3L157.75-7.3Q157.75-5.3 158.84-4.08 159.92-2.86 162.02-2.86ZM188.75-22.95L184.65-22.95 184.65-26.42 188.8-26.42 190.22-33.3 193.15-33.3 193.15-26.42 203.7-26.42 203.7-22.95 193.15-22.95 193.15-7.03Q193.15-5.1 194.19-4.17 195.22-3.25 197.59-3.25L197.59-3.25Q200.86-3.25 204.84-4.08L204.84-4.08 204.84-0.73Q200.72 0.39 196.66 0.39L196.66 0.39Q192.71 0.39 190.73-1.28 188.75-2.95 188.75-6.57L188.75-6.57 188.75-22.95Z" opacity="1" transform="matrix(1,0,0,1,0,0)" fill="#000000" class="wordmark-text-0" data-fill-palette-color="primary" id="text-0"></path></svg></g></svg></g><g transform="matrix(1,0,0,1,106.79039999999999,88.39802120679009)"><svg viewBox="0 0 181.9392 9.852449749296808" height="9.852449749296808" width="181.9392"><g transform="matrix(1,0,0,1,8,0)"><svg width="165.9392" viewBox="1.75 -37.7 817.6 48.550000000000004" height="9.852449749296808" data-palette-color="#000000"><path d="M14.5-35.25Q17.15-35.25 19.18-34.38 21.2-33.5 23.1-31.7L23.1-31.7 20.05-28.05Q18.75-29.25 17.53-29.83 16.3-30.4 14.85-30.4L14.85-30.4Q11.85-30.4 10.15-27.4 8.45-24.4 8.45-17.35L8.45-17.35Q8.45-10.4 10.15-7.38 11.85-4.35 14.95-4.35L14.95-4.35Q16.5-4.35 17.65-4.98 18.8-5.6 20.35-6.9L20.35-6.9 23.4-3.4Q21.8-1.6 19.55-0.43 17.3 0.75 14.5 0.75L14.5 0.75Q8.65 0.75 5.2-3.8 1.75-8.35 1.75-17.35L1.75-17.35Q1.75-23.3 3.4-27.3 5.05-31.3 7.93-33.27 10.8-35.25 14.5-35.25L14.5-35.25ZM36.05-27.15Q41.05-27.15 43.82-23.65 46.6-20.15 46.6-13.25L46.6-13.25Q46.6-6.65 43.8-2.95 41 0.75 36.05 0.75L36.05 0.75Q31.1 0.75 28.3-2.88 25.5-6.5 25.5-13.25L25.5-13.25Q25.5-19.95 28.3-23.55 31.1-27.15 36.05-27.15L36.05-27.15ZM36.05-22.5Q33.9-22.5 32.9-20.38 31.9-18.25 31.9-13.25L31.9-13.25Q31.9-8.2 32.9-6.08 33.9-3.95 36.05-3.95L36.05-3.95Q38.2-3.95 39.2-6.08 40.2-8.2 40.2-13.25L40.2-13.25Q40.2-18.3 39.2-20.4 38.2-22.5 36.05-22.5L36.05-22.5ZM63.5-27.15Q66.34-27.15 68-25.1 69.65-23.05 69.65-19.6L69.65-19.6 69.65 0 63.5 0 63.5-18.9Q63.5-20.8 62.97-21.63 62.45-22.45 61.45-22.45L61.45-22.45Q59.34-22.45 57.3-18.5L57.3-18.5 57.3 0 51.15 0 51.15-26.45 56.5-26.45 56.95-23Q58.3-25.1 59.82-26.13 61.34-27.15 63.5-27.15L63.5-27.15ZM87.54-27.15Q90.39-27.15 92.04-25.1 93.69-23.05 93.69-19.6L93.69-19.6 93.69 0 87.54 0 87.54-18.9Q87.54-20.8 87.02-21.63 86.49-22.45 85.49-22.45L85.49-22.45Q83.39-22.45 81.34-18.5L81.34-18.5 81.34 0 75.19 0 75.19-26.45 80.54-26.45 80.99-23Q82.34-25.1 83.87-26.13 85.39-27.15 87.54-27.15L87.54-27.15ZM118.09-13.85Q118.09-13.4 117.94-11.3L117.94-11.3 104.29-11.3Q104.49-7.2 105.72-5.58 106.94-3.95 109.19-3.95L109.19-3.95Q110.74-3.95 111.99-4.48 113.24-5 114.69-6.15L114.69-6.15 117.24-2.65Q113.74 0.75 108.84 0.75L108.84 0.75Q103.64 0.75 100.86-2.85 98.09-6.45 98.09-13L98.09-13Q98.09-19.55 100.74-23.35 103.39-27.15 108.24-27.15L108.24-27.15Q112.89-27.15 115.49-23.78 118.09-20.4 118.09-13.85L118.09-13.85ZM112.09-15.3L112.09-15.65Q112.09-19.4 111.19-21.13 110.29-22.85 108.29-22.85L108.29-22.85Q106.44-22.85 105.47-21.18 104.49-19.5 104.29-15.3L104.29-15.3 112.09-15.3ZM131.89-27.15Q134.04-27.15 135.79-26.43 137.54-25.7 139.14-24.15L139.14-24.15 136.49-20.65Q135.39-21.55 134.41-21.98 133.44-22.4 132.29-22.4L132.29-22.4Q130.04-22.4 128.89-20.28 127.74-18.15 127.74-13.1L127.74-13.1Q127.74-8.2 128.91-6.2 130.09-4.2 132.29-4.2L132.29-4.2Q133.39-4.2 134.29-4.6 135.19-5 136.39-5.85L136.39-5.85 139.14-2.3Q135.94 0.75 131.99 0.75L131.99 0.75Q126.89 0.75 124.06-2.73 121.24-6.2 121.24-13L121.24-13Q121.24-17.4 122.54-20.6 123.84-23.8 126.26-25.48 128.69-27.15 131.89-27.15L131.89-27.15ZM153.34-5L155.49-1.2Q153.03 0.75 149.74 0.75L149.74 0.75Q146.28 0.75 144.49-1.23 142.69-3.2 142.69-6.6L142.69-6.6 142.69-22 139.59-22 139.59-26.45 142.69-26.45 142.69-32.3 148.84-33.05 148.84-26.45 153.84-26.45 153.24-22 148.84-22 148.84-6.6Q148.84-4.2 150.89-4.2L150.89-4.2Q151.53-4.2 152.03-4.38 152.53-4.55 153.34-5L153.34-5ZM160.43-7.05Q162.03-7.05 163.06-5.98 164.08-4.9 164.08-3.25L164.08-3.25Q164.08-2.55 163.86-1.78 163.63-1 163.28-0.08 162.93 0.85 162.83 1.2L162.83 1.2 160.18 8.55 156.73 8.55 158.53 0.1Q156.73-1.2 156.73-3.2L156.73-3.2Q156.73-4.85 157.78-5.95 158.83-7.05 160.43-7.05L160.43-7.05ZM189.98-35.25Q192.63-35.25 194.65-34.38 196.68-33.5 198.58-31.7L198.58-31.7 195.53-28.05Q194.23-29.25 193-29.83 191.78-30.4 190.33-30.4L190.33-30.4Q187.33-30.4 185.63-27.4 183.93-24.4 183.93-17.35L183.93-17.35Q183.93-10.4 185.63-7.38 187.33-4.35 190.43-4.35L190.43-4.35Q191.98-4.35 193.13-4.98 194.28-5.6 195.83-6.9L195.83-6.9 198.88-3.4Q197.28-1.6 195.03-0.43 192.78 0.75 189.98 0.75L189.98 0.75Q184.13 0.75 180.68-3.8 177.23-8.35 177.23-17.35L177.23-17.35Q177.23-23.3 178.88-27.3 180.53-31.3 183.4-33.27 186.28-35.25 189.98-35.25L189.98-35.25ZM214.47-27.15Q217.33-27.15 218.98-25.1 220.63-23.05 220.63-19.6L220.63-19.6 220.63 0 214.47 0 214.47-18.9Q214.47-20.8 213.95-21.63 213.43-22.45 212.43-22.45L212.43-22.45Q210.33-22.45 208.28-18.5L208.28-18.5 208.28 0 202.13 0 202.13-37 208.28-37.65 208.28-23.3Q209.53-25.25 211-26.2 212.47-27.15 214.47-27.15L214.47-27.15ZM243.07-6.4Q243.07-5.1 243.42-4.48 243.77-3.85 244.57-3.45L244.57-3.45 243.32 0.65Q241.27 0.4 240.05-0.45 238.82-1.3 238.22-3.05L238.22-3.05Q235.92 0.75 231.77 0.75L231.77 0.75Q228.47 0.75 226.52-1.48 224.57-3.7 224.57-7.4L224.57-7.4Q224.57-11.7 227.25-13.95 229.92-16.2 235.02-16.2L235.02-16.2 237.07-16.2 237.07-18.05Q237.07-20.55 236.2-21.58 235.32-22.6 233.37-22.6L233.37-22.6Q231.02-22.6 227.52-21.3L227.52-21.3 226.12-25.3Q228.12-26.2 230.27-26.68 232.42-27.15 234.37-27.15L234.37-27.15Q243.07-27.15 243.07-18.35L243.07-18.35 243.07-6.4ZM233.42-3.7Q235.82-3.7 237.07-7L237.07-7 237.07-12.55 235.62-12.55Q233.07-12.55 231.9-11.4 230.72-10.25 230.72-7.85L230.72-7.85Q230.72-5.8 231.42-4.75 232.12-3.7 233.42-3.7L233.42-3.7ZM260.02-5L262.17-1.2Q259.72 0.75 256.42 0.75L256.42 0.75Q252.97 0.75 251.17-1.23 249.37-3.2 249.37-6.6L249.37-6.6 249.37-22 246.27-22 246.27-26.45 249.37-26.45 249.37-32.3 255.52-33.05 255.52-26.45 260.52-26.45 259.92-22 255.52-22 255.52-6.6Q255.52-4.2 257.57-4.2L257.57-4.2Q258.22-4.2 258.72-4.38 259.22-4.55 260.02-5L260.02-5ZM267.12-7.05Q268.72-7.05 269.74-5.98 270.77-4.9 270.77-3.25L270.77-3.25Q270.77-2.55 270.54-1.78 270.32-1 269.97-0.08 269.62 0.85 269.52 1.2L269.52 1.2 266.87 8.55 263.42 8.55 265.22 0.1Q263.42-1.2 263.42-3.2L263.42-3.2Q263.42-4.85 264.47-5.95 265.52-7.05 267.12-7.05L267.12-7.05ZM301.91-6.4Q301.91-5.1 302.26-4.48 302.61-3.85 303.41-3.45L303.41-3.45 302.16 0.65Q300.11 0.4 298.89-0.45 297.66-1.3 297.06-3.05L297.06-3.05Q294.76 0.75 290.61 0.75L290.61 0.75Q287.31 0.75 285.36-1.48 283.41-3.7 283.41-7.4L283.41-7.4Q283.41-11.7 286.09-13.95 288.76-16.2 293.86-16.2L293.86-16.2 295.91-16.2 295.91-18.05Q295.91-20.55 295.04-21.58 294.16-22.6 292.21-22.6L292.21-22.6Q289.86-22.6 286.36-21.3L286.36-21.3 284.96-25.3Q286.96-26.2 289.11-26.68 291.26-27.15 293.21-27.15L293.21-27.15Q301.91-27.15 301.91-18.35L301.91-18.35 301.91-6.4ZM292.26-3.7Q294.66-3.7 295.91-7L295.91-7 295.91-12.55 294.46-12.55Q291.91-12.55 290.74-11.4 289.56-10.25 289.56-7.85L289.56-7.85Q289.56-5.8 290.26-4.75 290.96-3.7 292.26-3.7L292.26-3.7ZM320.06-27.15Q322.91-27.15 324.56-25.1 326.21-23.05 326.21-19.6L326.21-19.6 326.21 0 320.06 0 320.06-18.9Q320.06-20.8 319.54-21.63 319.01-22.45 318.01-22.45L318.01-22.45Q315.91-22.45 313.86-18.5L313.86-18.5 313.86 0 307.71 0 307.71-26.45 313.06-26.45 313.51-23Q314.86-25.1 316.39-26.13 317.91-27.15 320.06-27.15L320.06-27.15ZM344.71-37.7L350.86-37.05 350.86 0 345.41 0 345.11-3.05Q342.76 0.75 339.06 0.75L339.06 0.75Q334.96 0.75 332.78-2.93 330.61-6.6 330.61-13.2L330.61-13.2Q330.61-17.4 331.73-20.58 332.86-23.75 334.86-25.45 336.86-27.15 339.46-27.15L339.46-27.15Q342.66-27.15 344.71-24.5L344.71-24.5 344.71-37.7ZM340.81-3.9Q341.96-3.9 342.88-4.7 343.81-5.5 344.71-7L344.71-7 344.71-19.85Q343.11-22.55 341.06-22.55L341.06-22.55Q337.01-22.55 337.01-13.25L337.01-13.25Q337.01-8.2 338.01-6.05 339.01-3.9 340.81-3.9L340.81-3.9ZM378.05-35.25Q380.7-35.25 382.73-34.38 384.75-33.5 386.65-31.7L386.65-31.7 383.6-28.05Q382.3-29.25 381.08-29.83 379.85-30.4 378.4-30.4L378.4-30.4Q375.4-30.4 373.7-27.4 372-24.4 372-17.35L372-17.35Q372-10.4 373.7-7.38 375.4-4.35 378.5-4.35L378.5-4.35Q380.05-4.35 381.2-4.98 382.35-5.6 383.9-6.9L383.9-6.9 386.95-3.4Q385.35-1.6 383.1-0.43 380.85 0.75 378.05 0.75L378.05 0.75Q372.2 0.75 368.75-3.8 365.3-8.35 365.3-17.35L365.3-17.35Q365.3-23.3 366.95-27.3 368.6-31.3 371.48-33.27 374.35-35.25 378.05-35.25L378.05-35.25ZM399.6-27.15Q404.6-27.15 407.38-23.65 410.15-20.15 410.15-13.25L410.15-13.25Q410.15-6.65 407.35-2.95 404.55 0.75 399.6 0.75L399.6 0.75Q394.65 0.75 391.85-2.88 389.05-6.5 389.05-13.25L389.05-13.25Q389.05-19.95 391.85-23.55 394.65-27.15 399.6-27.15L399.6-27.15ZM399.6-22.5Q397.45-22.5 396.45-20.38 395.45-18.25 395.45-13.25L395.45-13.25Q395.45-8.2 396.45-6.08 397.45-3.95 399.6-3.95L399.6-3.95Q401.75-3.95 402.75-6.08 403.75-8.2 403.75-13.25L403.75-13.25Q403.75-18.3 402.75-20.4 401.75-22.5 399.6-22.5L399.6-22.5ZM420.3 0.75Q417.6 0.75 416.02-0.93 414.45-2.6 414.45-5.4L414.45-5.4 414.45-37.05 420.6-37.7 420.6-5.65Q420.6-5 420.9-4.6 421.2-4.2 421.8-4.2L421.8-4.2Q422.15-4.2 422.47-4.3 422.8-4.4 422.9-4.4L422.9-4.4 424.1-0.2Q422.4 0.75 420.3 0.75L420.3 0.75ZM432.75 0.75Q430.05 0.75 428.47-0.93 426.9-2.6 426.9-5.4L426.9-5.4 426.9-37.05 433.05-37.7 433.05-5.65Q433.05-5 433.35-4.6 433.65-4.2 434.25-4.2L434.25-4.2Q434.6-4.2 434.92-4.3 435.25-4.4 435.35-4.4L435.35-4.4 436.55-0.2Q434.85 0.75 432.75 0.75L432.75 0.75ZM456.49-6.4Q456.49-5.1 456.84-4.48 457.19-3.85 457.99-3.45L457.99-3.45 456.74 0.65Q454.69 0.4 453.47-0.45 452.24-1.3 451.64-3.05L451.64-3.05Q449.34 0.75 445.19 0.75L445.19 0.75Q441.89 0.75 439.94-1.48 437.99-3.7 437.99-7.4L437.99-7.4Q437.99-11.7 440.67-13.95 443.34-16.2 448.44-16.2L448.44-16.2 450.49-16.2 450.49-18.05Q450.49-20.55 449.62-21.58 448.74-22.6 446.79-22.6L446.79-22.6Q444.44-22.6 440.94-21.3L440.94-21.3 439.54-25.3Q441.54-26.2 443.69-26.68 445.84-27.15 447.79-27.15L447.79-27.15Q456.49-27.15 456.49-18.35L456.49-18.35 456.49-6.4ZM446.84-3.7Q449.24-3.7 450.49-7L450.49-7 450.49-12.55 449.04-12.55Q446.49-12.55 445.32-11.4 444.14-10.25 444.14-7.85L444.14-7.85Q444.14-5.8 444.84-4.75 445.54-3.7 446.84-3.7L446.84-3.7ZM474.44-27.15Q478.29-27.15 480.34-23.65 482.39-20.15 482.39-13.25L482.39-13.25Q482.39-6.75 480.09-3 477.79 0.75 473.79 0.75L473.79 0.75Q472.04 0.75 470.59-0.13 469.14-1 468.09-2.55L468.09-2.55 467.74 0 462.29 0 462.29-37 468.44-37.65 468.44-23.6Q469.49-25.3 471.02-26.23 472.54-27.15 474.44-27.15L474.44-27.15ZM472.14-3.9Q473.99-3.9 475.02-6 476.04-8.1 476.04-13.25L476.04-13.25Q476.04-18.6 475.12-20.58 474.19-22.55 472.49-22.55L472.49-22.55Q471.34-22.55 470.29-21.6 469.24-20.65 468.44-19.1L468.44-19.1 468.44-6.7Q469.09-5.45 470.07-4.67 471.04-3.9 472.14-3.9L472.14-3.9ZM496.39-27.15Q501.39-27.15 504.16-23.65 506.94-20.15 506.94-13.25L506.94-13.25Q506.94-6.65 504.14-2.95 501.34 0.75 496.39 0.75L496.39 0.75Q491.44 0.75 488.64-2.88 485.84-6.5 485.84-13.25L485.84-13.25Q485.84-19.95 488.64-23.55 491.44-27.15 496.39-27.15L496.39-27.15ZM496.39-22.5Q494.24-22.5 493.24-20.38 492.24-18.25 492.24-13.25L492.24-13.25Q492.24-8.2 493.24-6.08 494.24-3.95 496.39-3.95L496.39-3.95Q498.54-3.95 499.54-6.08 500.54-8.2 500.54-13.25L500.54-13.25Q500.54-18.3 499.54-20.4 498.54-22.5 496.39-22.5L496.39-22.5ZM523.14-27.1Q524.29-27.1 525.19-26.75L525.19-26.75 524.19-20.85Q523.19-21.1 522.34-21.1L522.34-21.1Q520.44-21.1 519.34-19.45 518.24-17.8 517.64-14.55L517.64-14.55 517.64 0 511.49 0 511.49-26.45 516.84-26.45 517.29-21.85Q519.14-27.1 523.14-27.1L523.14-27.1ZM544.93-6.4Q544.93-5.1 545.28-4.48 545.63-3.85 546.43-3.45L546.43-3.45 545.18 0.65Q543.13 0.4 541.91-0.45 540.68-1.3 540.08-3.05L540.08-3.05Q537.78 0.75 533.63 0.75L533.63 0.75Q530.33 0.75 528.38-1.48 526.43-3.7 526.43-7.4L526.43-7.4Q526.43-11.7 529.11-13.95 531.78-16.2 536.88-16.2L536.88-16.2 538.93-16.2 538.93-18.05Q538.93-20.55 538.06-21.58 537.18-22.6 535.23-22.6L535.23-22.6Q532.88-22.6 529.38-21.3L529.38-21.3 527.98-25.3Q529.98-26.2 532.13-26.68 534.28-27.15 536.23-27.15L536.23-27.15Q544.93-27.15 544.93-18.35L544.93-18.35 544.93-6.4ZM535.28-3.7Q537.68-3.7 538.93-7L538.93-7 538.93-12.55 537.48-12.55Q534.93-12.55 533.76-11.4 532.58-10.25 532.58-7.85L532.58-7.85Q532.58-5.8 533.28-4.75 533.98-3.7 535.28-3.7L535.28-3.7ZM561.88-5L564.03-1.2Q561.58 0.75 558.28 0.75L558.28 0.75Q554.83 0.75 553.03-1.23 551.23-3.2 551.23-6.6L551.23-6.6 551.23-22 548.13-22 548.13-26.45 551.23-26.45 551.23-32.3 557.38-33.05 557.38-26.45 562.38-26.45 561.78-22 557.38-22 557.38-6.6Q557.38-4.2 559.43-4.2L559.43-4.2Q560.08-4.2 560.58-4.38 561.08-4.55 561.88-5L561.88-5ZM585.43-13.85Q585.43-13.4 585.28-11.3L585.28-11.3 571.63-11.3Q571.83-7.2 573.05-5.58 574.28-3.95 576.53-3.95L576.53-3.95Q578.08-3.95 579.33-4.48 580.58-5 582.03-6.15L582.03-6.15 584.58-2.65Q581.08 0.75 576.18 0.75L576.18 0.75Q570.98 0.75 568.2-2.85 565.43-6.45 565.43-13L565.43-13Q565.43-19.55 568.08-23.35 570.73-27.15 575.58-27.15L575.58-27.15Q580.23-27.15 582.83-23.78 585.43-20.4 585.43-13.85L585.43-13.85ZM579.43-15.3L579.43-15.65Q579.43-19.4 578.53-21.13 577.63-22.85 575.63-22.85L575.63-22.85Q573.78-22.85 572.8-21.18 571.83-19.5 571.63-15.3L571.63-15.3 579.43-15.3ZM608.47-35.25Q611.47-35.25 613.77-34.2 616.07-33.15 618.02-31.05L618.02-31.05 615.07-27.65Q613.52-29.05 612.05-29.75 610.57-30.45 608.92-30.45L608.92-30.45Q607.02-30.45 605.92-29.28 604.82-28.1 604.82-26.2L604.82-26.2Q604.82-24.3 605.97-23.1 607.12-21.9 610.47-20.6L610.47-20.6Q614.77-18.85 616.8-16.5 618.82-14.15 618.82-9.85L618.82-9.85Q618.82-6.9 617.47-4.48 616.12-2.05 613.6-0.65 611.07 0.75 607.72 0.75L607.72 0.75Q604.27 0.75 601.72-0.48 599.17-1.7 597.07-3.95L597.07-3.95 600.27-7.45Q602.07-5.85 603.72-5 605.37-4.15 607.32-4.15L607.32-4.15Q609.62-4.15 610.9-5.58 612.17-7 612.17-9.45L612.17-9.45Q612.17-11.6 611.05-12.98 609.92-14.35 606.87-15.5L606.87-15.5Q602.27-17.35 600.25-19.75 598.22-22.15 598.22-25.75L598.22-25.75Q598.22-28.5 599.55-30.65 600.87-32.8 603.22-34.02 605.57-35.25 608.47-35.25L608.47-35.25ZM641.67-13.85Q641.67-13.4 641.52-11.3L641.52-11.3 627.87-11.3Q628.07-7.2 629.29-5.58 630.52-3.95 632.77-3.95L632.77-3.95Q634.32-3.95 635.57-4.48 636.82-5 638.27-6.15L638.27-6.15 640.82-2.65Q637.32 0.75 632.42 0.75L632.42 0.75Q627.22 0.75 624.44-2.85 621.67-6.45 621.67-13L621.67-13Q621.67-19.55 624.32-23.35 626.97-27.15 631.82-27.15L631.82-27.15Q636.47-27.15 639.07-23.78 641.67-20.4 641.67-13.85L641.67-13.85ZM635.67-15.3L635.67-15.65Q635.67-19.4 634.77-21.13 633.87-22.85 631.87-22.85L631.87-22.85Q630.02-22.85 629.04-21.18 628.07-19.5 627.87-15.3L627.87-15.3 635.67-15.3ZM662.87-6.4Q662.87-5.1 663.22-4.48 663.57-3.85 664.37-3.45L664.37-3.45 663.12 0.65Q661.07 0.4 659.84-0.45 658.62-1.3 658.02-3.05L658.02-3.05Q655.72 0.75 651.57 0.75L651.57 0.75Q648.27 0.75 646.32-1.48 644.37-3.7 644.37-7.4L644.37-7.4Q644.37-11.7 647.04-13.95 649.72-16.2 654.82-16.2L654.82-16.2 656.87-16.2 656.87-18.05Q656.87-20.55 655.99-21.58 655.12-22.6 653.17-22.6L653.17-22.6Q650.82-22.6 647.32-21.3L647.32-21.3 645.92-25.3Q647.92-26.2 650.07-26.68 652.22-27.15 654.17-27.15L654.17-27.15Q662.87-27.15 662.87-18.35L662.87-18.35 662.87-6.4ZM653.22-3.7Q655.62-3.7 656.87-7L656.87-7 656.87-12.55 655.42-12.55Q652.87-12.55 651.69-11.4 650.52-10.25 650.52-7.85L650.52-7.85Q650.52-5.8 651.22-4.75 651.92-3.7 653.22-3.7L653.22-3.7ZM692.31-27.15Q694.96-27.15 696.56-25.1 698.16-23.05 698.16-19.6L698.16-19.6 698.16 0 692.11 0 692.11-18.95Q692.11-20.85 691.61-21.68 691.11-22.5 690.16-22.5L690.16-22.5Q688.21-22.5 686.41-18.8L686.41-18.8 686.41 0 680.41 0 680.41-18.95Q680.41-22.5 678.51-22.5L678.51-22.5Q676.46-22.5 674.71-18.8L674.71-18.8 674.71 0 668.66 0 668.66-26.45 674.01-26.45 674.41-23.05Q677.01-27.15 680.66-27.15L680.66-27.15Q682.51-27.15 683.86-26 685.21-24.85 685.91-22.75L685.91-22.75Q688.56-27.15 692.31-27.15L692.31-27.15ZM709.26 0.75Q706.56 0.75 704.99-0.93 703.41-2.6 703.41-5.4L703.41-5.4 703.41-37.05 709.56-37.7 709.56-5.65Q709.56-5 709.86-4.6 710.16-4.2 710.76-4.2L710.76-4.2Q711.11-4.2 711.44-4.3 711.76-4.4 711.86-4.4L711.86-4.4 713.06-0.2Q711.36 0.75 709.26 0.75L709.26 0.75ZM734.96-13.85Q734.96-13.4 734.81-11.3L734.81-11.3 721.16-11.3Q721.36-7.2 722.58-5.58 723.81-3.95 726.06-3.95L726.06-3.95Q727.61-3.95 728.86-4.48 730.11-5 731.56-6.15L731.56-6.15 734.11-2.65Q730.61 0.75 725.71 0.75L725.71 0.75Q720.51 0.75 717.73-2.85 714.96-6.45 714.96-13L714.96-13Q714.96-19.55 717.61-23.35 720.26-27.15 725.11-27.15L725.11-27.15Q729.76-27.15 732.36-23.78 734.96-20.4 734.96-13.85L734.96-13.85ZM728.96-15.3L728.96-15.65Q728.96-19.4 728.06-21.13 727.16-22.85 725.16-22.85L725.16-22.85Q723.31-22.85 722.33-21.18 721.36-19.5 721.16-15.3L721.16-15.3 728.96-15.3ZM746.61-27.15Q751.31-27.15 754.56-24.05L754.56-24.05 752.21-20.7Q750.81-21.7 749.56-22.2 748.31-22.7 747.01-22.7L747.01-22.7Q745.56-22.7 744.73-21.93 743.91-21.15 743.91-19.8L743.91-19.8Q743.91-18.45 744.83-17.63 745.76-16.8 748.56-15.7L748.56-15.7Q752.01-14.35 753.66-12.5 755.31-10.65 755.31-7.55L755.31-7.55Q755.31-3.7 752.61-1.48 749.91 0.75 745.76 0.75L745.76 0.75Q743.06 0.75 740.78-0.23 738.51-1.2 736.81-2.95L736.81-2.95 739.81-6.25Q742.61-3.8 745.51-3.8L745.51-3.8Q747.16-3.8 748.11-4.67 749.06-5.55 749.06-7.1L749.06-7.1Q749.06-8.25 748.66-8.97 748.26-9.7 747.26-10.33 746.26-10.95 744.26-11.7L744.26-11.7Q740.81-13.05 739.33-14.85 737.86-16.65 737.86-19.45L737.86-19.45Q737.86-22.8 740.23-24.98 742.61-27.15 746.61-27.15L746.61-27.15ZM766.5-27.15Q771.2-27.15 774.45-24.05L774.45-24.05 772.1-20.7Q770.7-21.7 769.45-22.2 768.2-22.7 766.9-22.7L766.9-22.7Q765.45-22.7 764.63-21.93 763.8-21.15 763.8-19.8L763.8-19.8Q763.8-18.45 764.73-17.63 765.65-16.8 768.45-15.7L768.45-15.7Q771.9-14.35 773.55-12.5 775.2-10.65 775.2-7.55L775.2-7.55Q775.2-3.7 772.5-1.48 769.8 0.75 765.65 0.75L765.65 0.75Q762.95 0.75 760.68-0.23 758.4-1.2 756.7-2.95L756.7-2.95 759.7-6.25Q762.5-3.8 765.4-3.8L765.4-3.8Q767.05-3.8 768-4.67 768.95-5.55 768.95-7.1L768.95-7.1Q768.95-8.25 768.55-8.97 768.15-9.7 767.15-10.33 766.15-10.95 764.15-11.7L764.15-11.7Q760.7-13.05 759.23-14.85 757.75-16.65 757.75-19.45L757.75-19.45Q757.75-22.8 760.13-24.98 762.5-27.15 766.5-27.15L766.5-27.15ZM784.65 0.75Q781.95 0.75 780.38-0.93 778.8-2.6 778.8-5.4L778.8-5.4 778.8-37.05 784.95-37.7 784.95-5.65Q784.95-5 785.25-4.6 785.55-4.2 786.15-4.2L786.15-4.2Q786.5-4.2 786.83-4.3 787.15-4.4 787.25-4.4L787.25-4.4 788.45-0.2Q786.75 0.75 784.65 0.75L784.65 0.75ZM810.15-26.45L803.15 0.1Q801.85 4.9 798.95 7.65 796.05 10.4 791.2 10.85L791.2 10.85 790.5 6.5Q793.65 5.85 795.22 4.42 796.8 3 797.7 0L797.7 0 795.4 0 788.7-26.45 794.95-26.45 799.35-4.1 804.05-26.45 810.15-26.45ZM815.55-7.05Q817.25-7.05 818.3-5.9 819.35-4.75 819.35-3.15L819.35-3.15Q819.35-1.55 818.3-0.4 817.25 0.75 815.55 0.75L815.55 0.75Q813.9 0.75 812.82-0.4 811.75-1.55 811.75-3.15L811.75-3.15Q811.75-4.75 812.82-5.9 813.9-7.05 815.55-7.05L815.55-7.05Z" opacity="1" transform="matrix(1,0,0,1,0,0)" fill="#000000" class="slogan-text-1" data-fill-palette-color="secondary" id="text-1"></path></svg></g></svg></g></svg></g></svg></g><g><svg viewBox="0 0 146.6122554329975 146.6122554329975" height="146.6122554329975" width="146.6122554329975"><g><svg></svg></g><g id="icon-0"><svg viewBox="0 0 146.6122554329975 146.6122554329975" height="146.6122554329975" width="146.6122554329975"><g><path d="M0 73.306c0-40.486 32.82-73.306 73.306-73.306 40.486 0 73.306 32.82 73.306 73.306 0 40.486-32.82 73.306-73.306 73.306-40.486 0-73.306-32.82-73.306-73.306zM73.306 140.163c36.924 0 66.857-29.933 66.857-66.857 0-36.924-29.933-66.857-66.857-66.857-36.924 0-66.857 29.933-66.857 66.857 0 36.924 29.933 66.857 66.857 66.857z" data-fill-palette-color="tertiary" fill="#261f20" stroke="transparent"></path></g><g transform="matrix(1,0,0,1,31.942370440234555,31.942370440234555)"><svg viewBox="0 0 82.72751455252839 82.72751455252839" height="82.72751455252839" width="82.72751455252839"><g><svg xmlns="http://www.w3.org/2000/svg" xmlns:xlink="http://www.w3.org/1999/xlink" version="1.1" x="0" y="0" viewBox="0 0 100 100" style="enable-background:new 0 0 100 100;" xml:space="preserve" height="82.72751455252839" width="82.72751455252839" class="icon-dxe-0" data-fill-palette-color="accent" id="dxe-0"><path d="M74.988 37.5V25C74.988 7.739 62.5 0 50 0H24.988C12.5 0 0 6.641 0 25 0 42.969 12.5 50 24.988 50H27.892C26.122 53.437 24.988 57.52 24.988 62.5V75C24.988 88.807 36.193 100 50 100 50 93.091 55.604 87.5 62.5 87.5H74.988C87.5 87.5 100 80.469 100 62.5 100 44.141 87.5 37.5 74.988 37.5M24.988 37.5C12.5 37.5 12.5 28.088 12.5 25 12.5 21.252 12.5 12.5 24.988 12.5H50C54.676 12.5 62.5 14.123 62.5 25V37.5C62.5 41.583 60.535 45.221 57.471 47.504 52.905 41.431 45.654 37.5 37.5 37.5zM74.988 75H62.5C54.334 75 47.07 78.931 42.505 84.998A12.49 12.49 0 0 1 37.5 75V62.5C37.5 56.781 40.344 53.309 43.176 51.525 47.18 53.613 50 57.678 50 62.5 59.24 62.5 67.212 57.434 71.545 49.988L71.533 49.994 74.988 50C87.5 50 87.5 58.759 87.5 62.5 87.5 65.601 87.5 75 74.988 75M74.121 43.731C74.035 44.018 73.937 44.298 73.852 44.58 73.938 44.299 74.048 44.019 74.121 43.731" fill="#261f20" data-fill-palette-color="accent"></path></svg></g></svg></g></svg></g></svg></g></svg></g><defs></defs></svg><rect width="395.52" height="100.69154048718475" fill="none" stroke="none" visibility="hidden"></rect></g></svg></g></svg>